<?xml version="1.0" standalone="no"?><!DOCTYPE svg PUBLIC "-//W3C//DTD SVG 1.1//EN" "http://www.w3.org/Graphics/SVG/1.1/DTD/svg11.dtd"><svg t="1608865028783" class="icon" viewBox="0 0 1024 1024" version="1.1" xmlns="http://www.w3.org/2000/svg" p-id="1777" xmlns:xlink="http://www.w3.org/1999/xlink" width="200" height="200"><defs><style type="text/css"></style></defs><path d="M701.866667 215.466667H358.4c-17.066667 0-32-14.933333-32-32s14.933333-32 32-32h343.466667c17.066667 0 32 14.933333 32 32s-12.8 32-32 32zM908.8 345.6H153.6c-17.066667 0-32-14.933333-32-32s14.933333-32 32-32h757.333333c17.066667 0 32 14.933333 32 32s-14.933333 32-34.133333 32z" p-id="1778"></path><path d="M657.066667 919.466667H407.466667c-83.2 0-153.6-59.733333-168.533334-142.933334l-64-445.866666c-2.133333-17.066667 10.666667-34.133333 27.733334-36.266667 17.066667-2.133333 34.133333 10.666667 36.266666 27.733333l64 445.866667c8.533333 51.2 51.2 87.466667 104.533334 87.466667h249.6c53.333333 0 96-38.4 104.533333-89.6l66.133333-420.266667c2.133333-17.066667 19.2-29.866667 36.266667-27.733333 17.066667 2.133333 29.866667 19.2 27.733333 36.266666l-66.133333 420.266667c-14.933333 85.333333-85.333333 145.066667-168.533333 145.066667zM701.866667 514.133333l-46.933334 200.533334" p-id="1779"></path><path d="M654.933333 746.666667h-6.4c-17.066667-4.266667-27.733333-21.333333-23.466666-38.4l46.933333-200.533334c4.266667-17.066667 21.333333-27.733333 38.4-23.466666 17.066667 4.266667 27.733333 21.333333 23.466667 38.4l-46.933334 200.533333c-4.266667 14.933333-17.066667 23.466667-32 23.466667z" fill="#FBAA00" p-id="1780"></path></svg>