<?xml version="1.0" standalone="no"?><!DOCTYPE svg PUBLIC "-//W3C//DTD SVG 1.1//EN" "http://www.w3.org/Graphics/SVG/1.1/DTD/svg11.dtd"><svg t="1608701572192" class="icon" viewBox="0 0 1024 1024" version="1.1" xmlns="http://www.w3.org/2000/svg" p-id="3657" xmlns:xlink="http://www.w3.org/1999/xlink" width="200" height="200"><defs><style type="text/css"></style></defs><path d="M522.666667 896c194.410667 0 352-9.557333 352-21.333333 0-8.256-77.354667-15.424-190.506667-18.965334-7.424-0.213333-13.482667 7.893333-22.037333 9.813334-6.4 1.493333-33.002667 1.173333-38.933334 1.024-4.8-0.106667-9.578667 1.536-11.178666-1.493334-1.813333-3.456-0.405333-11.626667-6.101334-11.712-28.672-0.448-52.202667 0-83.242666 0-33.301333 0-49.6 0.170667-80.149334 0.704-3.584 0.064 0.554667 9.386667-8 11.498667-13.44 3.285333-40.874667-0.128-46.293333 0-9.664 0.213333-7.957333-10.389333-17.194667-10.133333C252.522667 858.837333 170.666667 866.176 170.666667 874.666667c0 11.776 157.589333 21.333333 352 21.333333z" fill="#D8D8D8" p-id="3658"></path><path d="M145.429333 385.408c8.234667 17.450667 8.234667 31.872 0 43.306667-8.234667 11.392-29.013333 25.813333-62.357333 43.264l-5.76-29.781334v-23.957333l9.877333-28.010667 15.786667-4.821333h42.453333z" fill="#000000" p-id="3659"></path><path d="M761.429333 333.866667c-17.194667 76.928-15.530667 131.029333 5.013334 162.24 20.544 31.232 60.394667 40.256 119.552 27.093333l-4.416-46.677333 36.138666-28.821334c-7.914667-5.632-13.568-11.050667-16.96-16.256a40.384 40.384 0 0 1-5.973333-19.050666l-13.205333 11.221333h-18.816l-23.189334-33.386667-14.805333-20.010666-63.36-36.373334zM316.885333 274.773333c-52.224 29.802667-84.650667 63.317333-97.28 100.544-18.986667 55.829333-9.514667 98.965333 20.906667 124.288 15.146667 12.586667 145.834667 45.248 238.336-28.778666 45.888-36.736 59.2-86.037333 39.893333-147.946667l-19.968-35.392-43.178666-16.64-49.365334-8.106667-36.181333 8.106667-53.162667 3.904z" fill="#FFAD58" p-id="3660"></path><path d="M234.666667 416a32 21.333333 90 1 0 42.666666 0 32 21.333333 90 1 0-42.666666 0Z" fill="#000000" p-id="3661"></path><path d="M248.213333 414.186667c3.925333 0 7.104-4.778667 7.104-10.666667S252.16 392.853333 248.213333 392.853333c-3.925333 0-7.104 4.778667-7.104 10.666667s3.178667 10.666667 7.104 10.666667z" fill="#FFFFFF" p-id="3662"></path><path d="M371.072 262.826667c12.970667-7.68 22.144-7.125333 74.794667 1.066666 49.621333 7.701333 78.208 33.728 78.208 58.986667 0 19.797333-76.885333 120.405333-95.530667 120.405333-19.669333 0-43.946667-9.472-61.141333-25.322666-9.130667-8.405333-14.592-28.757333-17.92-58.133334a514.24 514.24 0 0 1-3.050667-52.586666c0-12.010667 9.386667-17.557333 24.874667-16.704a5.333333 5.333333 0 0 1-0.576 10.645333c-10.176-0.554667-13.632 1.493333-13.632 6.058667l0.149333 9.6c0.32 12.224 1.237333 27.648 2.837333 41.792 3.008 26.624 8.106667 45.546667 14.549334 51.477333 15.232 14.037333 36.906667 22.506667 53.909333 22.506667 12.032 0 84.864-95.296 84.864-109.738667 0-18.581333-22.4-39.701333-63.893333-47.530667l-5.290667-0.917333c-50.112-7.786667-57.706667-8.32-67.968-2.24l-2.346667 1.450667c-1.792 1.152-3.008 1.557333-7.466666 1.706666h-9.514667c-33.493333-0.213333-56.042667 2.410667-81.578667 13.226667a134.613333 134.613333 0 0 0-21.930666 11.733333c-15.104 10.005333-33.984 38.4-56.021334 84.821334l-4.906666 10.56-4.117334-0.810667c-52.629333-10.389333-85.802667-10.816-98.282666-2.304l-0.490667 0.384-1.322667 3.413333c-15.061333 42.496 1.728 101.290667 32.704 148.864l3.498667 5.248c14.826667 21.653333 47.893333 33.962667 99.562667 36.309334a5.333333 5.333333 0 1 1-0.490667 10.666666c-54.656-2.496-90.752-15.914667-107.882667-40.96-34.944-51.050667-54.549333-115.776-37.397333-163.84l1.984-5.098666 1.429333-1.962667c13.568-11.669333 44.949333-12.586667 95.210667-3.712l9.429333 1.706667 1.514667-3.2c21.717333-45.738667 40.618667-74.730667 57.216-87.253334l2.474667-1.728a145.28 145.28 0 0 1 23.68-12.672c25.258667-10.688 47.530667-13.845333 78.485333-14.058666l18.304-0.021334 3.072-1.813333z" fill="#000000" p-id="3663"></path><path d="M192.298667 591.466667c6.08 48.618667 21.952 89.557333 47.594666 122.944 24 31.210667 54.848 53.653333 92.693334 67.349333l7.68 2.602667-3.306667 10.154666c-43.392-14.016-78.613333-38.570667-105.514667-73.6-25.173333-32.768-41.322667-72.384-48.426666-118.762666l-1.301334-9.386667 10.581334-1.301333z" fill="#000000" p-id="3664"></path><path d="M327.573333 732.522667a5.333333 5.333333 0 0 1 5.909334 4.693333c3.605333 30.506667 9.642667 49.621333 17.408 56.853333l9.514666 8.682667c3.562667 3.306667 6.037333 5.866667 8.021334 8.469333 5.354667 7.04 6.634667 14.165333 2.986666 21.973334-0.576 1.28-1.237333 2.538667-2.026666 3.968l-3.584 6.101333-2.773334 4.629333a33.770667 33.770667 0 0 0-3.797333 8.042667c-0.576 2.069333-0.490667 2.261333 0.981333 2.837333 13.333333 5.162667 66.986667 7.082667 68.885334 2.816 4.672-10.624 9.28-21.824 13.226666-32.896l2.24-6.592c3.733333-11.562667 5.376-19.946667 4.522667-21.333333a5.333333 5.333333 0 0 1 9.066667-5.589333c3.669333 5.930667 1.088 17.770667-5.781334 37.098666-4.053333 11.370667-8.746667 22.762667-13.525333 33.6-5.333333 12.096-64.042667 10.005333-82.496 2.837334-6.997333-2.730667-9.322667-8.597333-7.424-15.573334a39.68 39.68 0 0 1 4.586667-10.112l3.861333-6.464c2.133333-3.52 3.392-5.76 4.394667-7.893333 1.813333-3.925333 1.28-6.890667-1.834667-10.986667a46.997333 46.997333 0 0 0-4.608-5.056l-4.224-3.925333-7.488-6.826667c-10.197333-9.514667-16.853333-30.506667-20.714667-63.424a5.333333 5.333333 0 0 1 4.672-5.930666zM206.72 669.696l4.650667 9.6-14.421334 7.061333c-28.522667 14.165333-44.8 23.637333-46.421333 26.453334-2.346667 4.117333 20.693333 30.144 38.08 35.562666 12.714667 3.968 35.072 2.944 66.666667-3.264l6.442666-1.322666 2.197334 10.453333c-36.693333 7.701333-62.698667 9.237333-78.506667 4.309333-22.890667-7.146667-51.050667-38.933333-44.138667-51.029333 3.434667-5.973333 22.4-16.874667 60.181334-35.264l5.269333-2.56z" fill="#000000" p-id="3665"></path><path d="M887.765333 480.554667c14.016 80.362667-9.344 210.133333-24.32 220.437333-1.642667 1.109333-3.050667 8.746667-3.306666 19.904l-0.021334 3.434667c0 3.84 0.106667 7.829333 0.298667 12.245333l0.789333 15.36c0 0.576 0.128 0.853333 1.386667 1.514667l9.770667 4.565333c1.664 0.810667 3.2 1.6 4.224 2.176 13.461333 7.722667 1.28 48.789333-12.074667 64.938667-10.176 12.330667-24.32 7.68-30.506667-4.501334l-1.002666-2.218666c-1.514667-3.84-5.098667-7.893333-10.794667-12.074667l-0.64-0.426667c-5.546667 1.962667-15.146667 2.773333-29.76 2.922667h-4.544c-10.837333 0-19.136-2.346667-27.328-6.762667l-7.36-4.245333a8.170667 8.170667 0 0 0-3.306667-1.28c-0.597333 0-1.386667 0.405333-2.602666 1.621333l-1.002667 1.066667c-8.405333 9.514667-81.365333 17.109333-228.565333 24.661333l-66.197334 3.178667-0.490666-10.666667 72.405333-3.52c134.826667-7.125333 209.450667-14.613333 214.826667-20.714666 3.669333-4.16 7.36-6.272 11.584-6.272 2.794667 0 5.312 0.853333 8.448 2.56l6.058666 3.52 1.28 0.704c6.698667 3.626667 13.312 5.504 22.250667 5.504l8.021333-0.085334c12.48-0.256 20.501333-1.152 22.869334-2.133333l0.533333-0.298667 3.029333-2.474666 3.264 2.133333c8.042667 5.226667 13.653333 10.709333 16.768 16.576l1.173334 2.56c2.901333 7.253333 8.704 9.514667 13.376 3.882667 9.493333-11.52 19.776-46.144 14.976-48.896a191.978667 191.978667 0 0 0-12.224-5.824l-1.984-1.066667c-3.690667-2.176-5.845333-4.8-6.4-8.618667l-0.661334-12.181333c-0.277333-4.906667-0.448-9.237333-0.533333-13.354667l-0.021333-4.053333c0-17.322667 1.770667-27.925333 7.936-32.149333 10.88-7.466667 34.197333-138.496 18.965333-214.613334-1.066667-5.269333 26.176-26.453333 29.248-29.44 10.325333-10.026667 17.877333-20.565333 22.186667-32.128 5.76-15.445333 6.570667-37.866667 3.264-60.16a135.36 135.36 0 0 0-4.416-20.074666l-0.64-1.792-1.92 12.437333-1.408 9.28c-1.173333 7.509333-2.432 13.909333-3.968 20.053333-2.858667 11.370667-6.549333 21.077333-11.52 29.248-13.866667 22.826667-42.154667 32.298667-48.149334 20.117334a160.789333 160.789333 0 0 0-25.024-37.248c-22.869333-25.301333-72.618667-53.141333-123.157333-63.701334-31.658667-6.613333-89.173333-9.088-172.330667-7.424l-19.626666 0.469334-0.298667-10.666667 19.818667-0.469333c83.861333-1.685333 141.994667 0.853333 174.613333 7.658666 52.714667 11.008 104.469333 39.978667 128.896 66.986667 10.602667 11.733333 19.477333 24.981333 26.688 39.68 1.002667 2.048 19.2-4.053333 29.44-20.949333 4.352-7.146667 7.68-15.872 10.304-26.282667 1.088-4.352 2.026667-8.896 2.922667-13.930667l1.472-9.173333c0.725333-4.864 1.706667-11.669333 1.92-12.928 1.749333-11.328 3.029333-15.893333 6.890666-18.453333 6.528-4.352 10.496 0.832 14.037334 10.325333 2.368 6.4 4.522667 15.424 5.994666 25.28 3.562667 23.893333 2.688 48.021333-3.797333 65.429333-4.928 13.226667-13.376 25.002667-24.746667 36.053334l-4.266666 4.032c-3.477333 3.157333-7.018667 6.058667-12.224 10.154666l-6.528 5.12-2.709334 2.282667c-0.064 0.042667-0.085333 0.085333-0.192-0.341333l0.64 3.52z" fill="#000000" p-id="3666"></path><path d="M694.656 802.474667l10.453333 2.090666-2.24 11.114667c-5.781333 27.989333-9.792 42.666667-13.013333 46.592-5.973333 7.253333-66.816 12.544-79.68 7.786667-7.552-2.794667-10.922667-8.789333-9.130667-15.168 1.066667-3.84 3.968-7.253333 7.402667-8.746667l1.152-0.362667 0.490667-1.066666c0.362667-0.896 0.746667-1.984 1.152-3.285334l0.64-2.133333c1.130667-4.010667 2.346667-9.386667 3.669333-16l2.453333-13.397333 10.496 1.813333-2.410666 13.44c-4.330667 22.784-7.594667 30.912-14.08 30.912 0.426667 0-0.448 0.832-0.704 1.706667-0.234667 0.853333 0.064 1.344 2.56 2.282666 9.088 3.349333 65.237333-1.536 67.754666-4.565333 1.664-2.026667 5.653333-17.152 10.965334-42.88l2.069333-10.133333zM160.234667 503.765333a5.333333 5.333333 0 1 1 9.130666 5.504c-8.618667 14.293333-16.32 23.765333-23.424 28.501334-7.274667 4.842667-17.706667 7.317333-31.36 7.616a5.333333 5.333333 0 0 1-0.234666-10.666667c11.797333-0.256 20.373333-2.282667 25.685333-5.824 5.482667-3.669333 12.330667-12.074667 20.202667-25.130667z" fill="#000000" p-id="3667"></path></svg>