<?xml version="1.0" standalone="no"?><!DOCTYPE svg PUBLIC "-//W3C//DTD SVG 1.1//EN" "http://www.w3.org/Graphics/SVG/1.1/DTD/svg11.dtd"><svg t="1608865016599" class="icon" viewBox="0 0 1024 1024" version="1.1" xmlns="http://www.w3.org/2000/svg" p-id="1615" xmlns:xlink="http://www.w3.org/1999/xlink" width="200" height="200"><defs><style type="text/css"></style></defs><path d="M501.333333 906.666667c-219.733333 0-398.933333-179.2-398.933333-398.933334 0-219.733333 179.2-398.933333 398.933333-398.933333s398.933333 179.2 398.933334 398.933333c0 219.733333-179.2 398.933333-398.933334 398.933334z m0-731.733334c-183.466667 0-334.933333 149.333333-334.933333 334.933334s149.333333 334.933333 334.933333 334.933333 334.933333-149.333333 334.933334-334.933333S684.8 174.933333 501.333333 174.933333z" p-id="1616"></path><path d="M494.933333 663.466667c-19.2 0-40.533333-4.266667-57.6-14.933334-36.266667-21.333333-57.6-57.6-57.6-100.266666v-70.4c0-42.666667 21.333333-78.933333 57.6-100.266667 36.266667-21.333333 78.933333-21.333333 115.2 0l61.866667 36.266667c36.266667 21.333333 57.6 57.6 57.6 100.266666s-21.333333 78.933333-57.6 100.266667l-61.866667 36.266667c-17.066667 8.533333-38.4 12.8-57.6 12.8z m0-238.933334c-8.533333 0-17.066667 2.133333-25.6 6.4-17.066667 8.533333-25.6 25.6-25.6 44.8v70.4c0 19.2 10.666667 36.266667 25.6 44.8 17.066667 8.533333 36.266667 8.533333 51.2 0l61.866667-36.266666c17.066667-8.533333 25.6-25.6 25.6-44.8s-10.666667-36.266667-25.6-44.8l-61.866667-36.266667c-8.533333-2.133333-17.066667-4.266667-25.6-4.266667z" fill="#FBAA00" p-id="1617"></path></svg>