<?xml version="1.0" standalone="no"?><!DOCTYPE svg PUBLIC "-//W3C//DTD SVG 1.1//EN" "http://www.w3.org/Graphics/SVG/1.1/DTD/svg11.dtd"><svg t="1608712384058" class="icon" viewBox="0 0 1024 1024" version="1.1" xmlns="http://www.w3.org/2000/svg" p-id="1392" xmlns:xlink="http://www.w3.org/1999/xlink" width="200" height="200"><defs><style type="text/css"></style></defs><path d="M809.377553 486.310524a84.504854 84.504854 0 1 1-169.009708 0 84.504854 84.504854 0 0 1 169.009708 0M386.853282 486.310524a84.504854 84.504854 0 1 1-169.009709 0 84.504854 84.504854 0 0 1 169.009709 0" fill="#5E666F" p-id="1393"></path><path d="M386.853282 486.310524a84.504854 84.504854 0 1 0-169.009709 0 84.504854 84.504854 0 0 0 169.009709 0m422.524271 0a84.504854 84.504854 0 1 0-169.009708 0 84.504854 84.504854 0 0 0 169.009708 0m190.135923-422.524272v887.300971a42.38167 42.38167 0 0 1-42.252427 42.252427H69.960078a42.391612 42.391612 0 0 1-42.252428-42.252427V63.786252a42.391612 42.391612 0 0 1 42.252428-42.252427h887.300971a42.38167 42.38167 0 0 1 42.252427 42.252427" fill="#FFD0AA" p-id="1394"></path><path d="M724.872699 475.752388a31.694291 31.694291 0 1 1-63.388582-0.009941 31.694291 31.694291 0 0 1 63.388582 0M365.727068 475.752388a31.694291 31.694291 0 1 1-63.368699 0 31.694291 31.694291 0 0 1 63.368699 0" fill="#F8FAFD" p-id="1395"></path><path d="M69.960078 42.650097a21.126214 21.126214 0 0 0-21.126214 21.126214v887.300971c0 11.671612 9.454602 21.126214 21.126214 21.126213h887.300971a21.116272 21.116272 0 0 0 21.126213-21.126213V63.776311a21.126214 21.126214 0 0 0-21.126213-21.126214H69.960078z m887.300971 971.805825H69.960078a63.378641 63.378641 0 0 1-63.378641-63.37864V63.776311A63.378641 63.378641 0 0 1 69.960078 0.39767h887.300971a63.378641 63.378641 0 0 1 63.37864 63.378641v887.300971a63.378641 63.378641 0 0 1-63.37864 63.37864z" fill="#2F333A" p-id="1396"></path><path d="M724.872699 422.921942a63.378641 63.378641 0 1 0 0 126.757281 63.378641 63.378641 0 0 0 0-126.757281m0 169.009708c-58.338175 0-105.631068-47.282951-105.631068-105.621126S666.534524 380.669515 724.872699 380.669515s105.631068 47.292893 105.631068 105.631068c-0.069592 58.30835-47.322718 105.571417-105.631068 105.631067M302.348427 422.921942a63.378641 63.378641 0 1 0 0 126.757281 63.378641 63.378641 0 0 0 0-126.757281m0 169.009708c-58.338175 0-105.631068-47.282951-105.631068-105.621126S244.010252 380.669515 302.348427 380.669515s105.631068 47.292893 105.631068 105.631068c-0.069592 58.30835-47.322718 105.571417-105.631068 105.631067M513.610563 671.644583c58.30835 0.069592 105.561476 47.322718 105.631068 105.631067h-42.252427a63.378641 63.378641 0 1 0-126.757282 0h-42.252427c0.079534-58.30835 47.322718-105.561476 105.631068-105.631067" fill="#2F333A" p-id="1397"></path></svg>