<?xml version="1.0" standalone="no"?><!DOCTYPE svg PUBLIC "-//W3C//DTD SVG 1.1//EN" "http://www.w3.org/Graphics/SVG/1.1/DTD/svg11.dtd"><svg t="1608907474903" class="icon" viewBox="0 0 1024 1024" version="1.1" xmlns="http://www.w3.org/2000/svg" p-id="1191" xmlns:xlink="http://www.w3.org/1999/xlink" width="200" height="200"><defs><style type="text/css"></style></defs><path d="M992 475.632h-72.624l36.32-62.848a31.92 31.92 0 0 0-11.68-43.68 31.888 31.888 0 0 0-43.68 11.712l-54.72 94.816H789.12l-110.848-191.968 28.224-48.848H816a31.984 31.984 0 1 0-0.064-63.936h-72.56l36.336-62.944A31.936 31.936 0 0 0 768 64.256a31.904 31.904 0 0 0-43.68 11.712L688 138.88l-36.32-62.912A31.92 31.92 0 0 0 608 64.256a31.888 31.888 0 0 0-11.68 43.68l54.784 94.88-28.192 48.816H401.168l-28.192-48.848 54.752-94.848a31.936 31.936 0 0 0-11.712-43.68 31.888 31.888 0 0 0-43.68 11.744l-36.288 62.848-36.32-62.912a31.952 31.952 0 0 0-43.712-11.68 31.904 31.904 0 0 0-11.68 43.68l36.32 62.912L208 170.816a32 32 0 1 0 0 63.968l109.536-0.032 28.224 48.848-110.944 192.032h-56.336l-54.752-94.848a31.984 31.984 0 1 0-55.392 32l36.32 62.848H32a31.984 31.984 0 1 0 0 64h72.624l-36.32 62.848a31.936 31.936 0 0 0 11.68 43.712c15.312 8.848 34.88 3.6 43.68-11.712l54.752-94.848h56.432l110.848 192.096-28.128 48.72H208a32.08 32.08 0 0 0-32.032 32.064c0 17.68 14.336 31.936 32.064 31.904h72.624l-36.368 62.976a32 32 0 0 0 55.392 32L336 876.48l36.288 62.88a31.968 31.968 0 0 0 43.664 11.696 31.856 31.856 0 0 0 11.712-43.664l-54.752-94.816 28.256-48.944 221.712 0.032 28.16 48.784-54.784 94.88A32 32 0 0 0 608 951.072a31.888 31.888 0 0 0 43.664-11.808l36.32-62.88 36.336 62.96a32 32 0 1 0 55.392-32l-36.32-62.912 72.592 0.032a31.952 31.952 0 0 0 31.968-31.968 31.888 31.888 0 0 0-31.968-31.968h-109.504l-28.224-48.912 110.848-192h56.336l54.784 94.88a32.016 32.016 0 0 0 43.744 11.712 31.92 31.92 0 0 0 11.632-43.712l-36.288-62.88H992a32 32 0 1 0 0-63.984z m-276.784 0h-73.872l13.536 23.44-50.496-87.44 36.944-64 73.888 128z m-166.272 96.064l-73.936-0.032-36.976-64.032 36.992-64h73.904l36.992 64.032-36.976 64.032z m36.992-256.064l-36.944 64h-73.936l-36.944-64h147.824z m-203.248 32l36.912 63.904-36.976 64.096h-73.84l73.904-128z m-73.904 192h73.808l-13.504-23.376 64 110.784-13.472-23.312-36.944 63.968-73.888-128.064z m129.344 160l36.912-63.936H448l100.976-0.032 36.944 63.968h-147.792z m203.184-32l-36.912-63.968-13.536 23.44 50.464-87.472H715.2l-73.888 128z" fill="#469FCC" p-id="1192"></path></svg>