<?xml version="1.0" standalone="no"?><!DOCTYPE svg PUBLIC "-//W3C//DTD SVG 1.1//EN" "http://www.w3.org/Graphics/SVG/1.1/DTD/svg11.dtd"><svg t="1608865011780" class="icon" viewBox="0 0 1024 1024" version="1.1" xmlns="http://www.w3.org/2000/svg" p-id="1467" xmlns:xlink="http://www.w3.org/1999/xlink" width="200" height="200"><defs><style type="text/css"></style></defs><path d="M514.133333 915.2c-219.733333 0-398.933333-179.2-398.933333-398.933333S294.4 119.466667 514.133333 119.466667 913.066667 298.666667 913.066667 516.266667s-179.2 398.933333-398.933334 398.933333z m0-731.733333c-183.466667 0-334.933333 149.333333-334.933333 334.933333S328.533333 853.333333 514.133333 853.333333s334.933333-149.333333 334.933334-334.933333-149.333333-334.933333-334.933334-334.933333z" p-id="1468"></path><path d="M428.8 637.866667c-17.066667 0-32-14.933333-32-32v-177.066667c0-17.066667 14.933333-32 32-32s32 14.933333 32 32v177.066667c0 17.066667-14.933333 32-32 32zM599.466667 637.866667c-17.066667 0-32-14.933333-32-32v-177.066667c0-17.066667 14.933333-32 32-32s32 14.933333 32 32v177.066667c0 17.066667-14.933333 32-32 32z" fill="#FBAA00" p-id="1469"></path></svg>